<?xml version="1.0" encoding="UTF-8" standalone="no"?><!-- Generator: Gravit.io --><svg xmlns="http://www.w3.org/2000/svg" xmlns:xlink="http://www.w3.org/1999/xlink" style="isolation:isolate" viewBox="0 0 560 200" width="560pt" height="200pt"><defs><clipPath id="_clipPath_gaG9op5PS3Ed7kf7VxsAp0kbVb7kVD7F"><rect width="560" height="200"/></clipPath></defs><g clip-path="url(#_clipPath_gaG9op5PS3Ed7kf7VxsAp0kbVb7kVD7F)"><g style="isolation:isolate"><path d=" M 80 44.253 L 80 89.474 L 140 100.054 L 140 54.833 L 80 44.253 Z " fill="rgb(51,170,221)" fill-opacity="0.8"/><text transform="matrix(1,0,0,1,86.5,79.292)" style="font-family:'Open Sans';font-weight:400;font-size:16px;font-style:normal;fill:#000000;stroke:none;">Bloc 1</text><path d=" M 80 44.253 L 120 21.159 L 180 31.739 L 140 54.833 L 80 44.253 Z " fill="rgb(13,125,153)" fill-opacity="0.9"/><path d=" M 140 100.054 L 140 54.833 L 180 31.739 L 180 76.959 L 140 100.054 Z " fill="rgb(7,58,77)" fill-opacity="0.9"/></g><ellipse vector-effect="non-scaling-stroke" cx="160" cy="68.21668615652096" rx="5" ry="7.610316169515983" fill="rgb(235,235,235)"/><path d=" M 160 60.753 L 220 71.333 L 220 86.407 L 160 75.827 L 160 60.753 Z " fill="rgb(57,57,57)"/><g style="isolation:isolate"><path d=" M 190 74.253 L 190 119.474 L 250 130.054 L 250 84.833 L 190 74.253 Z " fill="rgb(51,170,221)"/><text transform="matrix(1,0,0,1,196.5,109.292)" style="font-family:'Open Sans';font-weight:400;font-size:16px;font-style:normal;fill:#000000;stroke:none;">Bloc 2</text><path d=" M 190 74.253 L 230 51.159 L 290 61.739 L 250 84.833 L 190 74.253 Z " fill="rgb(13,125,153)"/><path d=" M 250 130.054 L 250 84.833 L 290 61.739 L 290 106.959 L 250 130.054 Z " fill="rgb(7,58,77)" fill-opacity="0.9"/></g><ellipse vector-effect="non-scaling-stroke" cx="270" cy="98.21668615652095" rx="5" ry="7.610316169515983" fill="rgb(57,57,57)"/><g style="isolation:isolate"><path d=" M 270 90.753 L 330 101.333 L 330 116.407 L 270 105.827 L 270 90.753 Z " fill="rgb(57,57,57)"/><path d=" M 300 104.253 L 300 149.474 L 360 160.054 L 360 114.833 L 300 104.253 Z " fill="rgb(51,170,221)"/><text transform="matrix(1,0,0,1,306.5,139.292)" style="font-family:'Open Sans';font-weight:400;font-size:16px;font-style:normal;fill:#000000;stroke:none;">Bloc 3</text><path d=" M 300 104.253 L 340 81.159 L 400 91.739 L 360 114.833 L 300 104.253 Z " fill="rgb(13,125,153)"/><path d=" M 360 160.054 L 360 114.833 L 400 91.739 L 400 136.959 L 360 160.054 Z " fill="rgb(7,58,77)" fill-opacity="0.9"/></g></g></svg>