<?xml version="1.0" encoding="UTF-8" standalone="no"?><!-- Generator: Gravit.io --><svg xmlns="http://www.w3.org/2000/svg" xmlns:xlink="http://www.w3.org/1999/xlink" style="isolation:isolate" viewBox="0 0 560 315" width="560pt" height="315pt"><defs><clipPath id="_clipPath_aaIz184oVR2rzqqia2eDd4XkE0W123fV"><rect width="560" height="315"/></clipPath></defs><g clip-path="url(#_clipPath_aaIz184oVR2rzqqia2eDd4XkE0W123fV)"><rect x="12" y="44" width="100" height="54" transform="matrix(1,0,0,1,0,0)" fill="rgb(0,0,0)"/><rect x="16" y="47" width="92" height="48" transform="matrix(1,0,0,1,0,0)" fill="rgb(235,235,235)"/><rect x="52" y="98" width="14" height="11" transform="matrix(1,0,0,1,0,0)" fill="rgb(0,0,0)"/><g style="isolation:isolate"><rect x="474.926" y="44" width="79.074" height="15.815" transform="matrix(1,0,0,1,0,0)" fill="rgb(0,0,0)"/><rect x="476.432" y="45.506" width="75.309" height="12.802" transform="matrix(1,0,0,1,0,0)" fill="rgb(235,235,235)"/><rect x="480.198" y="51.154" width="39.914" height="2.636" transform="matrix(1,0,0,1,0,0)" fill="rgb(0,0,0)"/><circle vector-effect="non-scaling-stroke" cx="527.6419753086418" cy="52.660493827160415" r="1.5061728395062346" fill="rgb(0,0,0)"/><circle vector-effect="non-scaling-stroke" cx="535.1728395061727" cy="52.660493827160415" r="1.5061728395062346" fill="rgb(0,0,0)"/><circle vector-effect="non-scaling-stroke" cx="542.7037037037036" cy="52.660493827160415" r="1.5061728395062346" fill="rgb(0,0,0)"/><g style="isolation:isolate"><rect x="474.926" y="89.185" width="79.074" height="15.815" transform="matrix(1,0,0,1,0,0)" fill="rgb(0,0,0)"/><rect x="476.432" y="90.691" width="75.309" height="12.802" transform="matrix(1,0,0,1,0,0)" fill="rgb(235,235,235)"/><rect x="480.198" y="96.34" width="39.914" height="2.636" transform="matrix(1,0,0,1,0,0)" fill="rgb(0,0,0)"/><circle vector-effect="non-scaling-stroke" cx="527.6419753086418" cy="97.84567901234568" r="1.5061728395062346" fill="rgb(0,0,0)"/><circle vector-effect="non-scaling-stroke" cx="535.1728395061727" cy="97.84567901234568" r="1.5061728395062346" fill="rgb(0,0,0)"/><circle vector-effect="non-scaling-stroke" cx="542.7037037037036" cy="97.84567901234568" r="1.5061728395062346" fill="rgb(0,0,0)"/></g><text transform="matrix(1,0,0,1,184.322,32.031)" style="font-family:'Open Sans';font-weight:400;font-size:20px;font-style:normal;fill:#000000;stroke:none;">Connexion standard</text><text transform="matrix(1,0,0,1,206.72,169.877)" style="font-family:'Open Sans';font-weight:400;font-size:20px;font-style:normal;fill:#000000;stroke:none;">Connexion TOR</text><text transform="matrix(1,0,0,1,42,141.377)" style="font-family:'Open Sans';font-weight:400;font-size:20px;font-style:normal;fill:#000000;stroke:none;">Client</text><rect x="12" y="194" width="100" height="54" transform="matrix(1,0,0,1,0,0)" fill="rgb(0,0,0)"/><rect x="16" y="197" width="92" height="48" transform="matrix(1,0,0,1,0,0)" fill="rgb(235,235,235)"/><rect x="52" y="248" width="14" height="11" transform="matrix(1,0,0,1,0,0)" fill="rgb(0,0,0)"/><text transform="matrix(1,0,0,1,42,291.377)" style="font-family:'Open Sans';font-weight:400;font-size:20px;font-style:normal;fill:#000000;stroke:none;">Client</text><text transform="matrix(1,0,0,1,463.432,143.877)" style="font-family:'Open Sans';font-weight:400;font-size:20px;font-style:normal;fill:#000000;stroke:none;">Serveur</text><rect x="474.926" y="174" width="79.074" height="15.815" transform="matrix(1,0,0,1,0,0)" fill="rgb(0,0,0)"/><rect x="476.432" y="175.506" width="75.309" height="12.802" transform="matrix(1,0,0,1,0,0)" fill="rgb(235,235,235)"/><rect x="480.198" y="181.154" width="39.914" height="2.636" transform="matrix(1,0,0,1,0,0)" fill="rgb(0,0,0)"/><circle vector-effect="non-scaling-stroke" cx="527.6419753086418" cy="182.66049382716034" r="1.5061728395062346" fill="rgb(0,0,0)"/><circle vector-effect="non-scaling-stroke" cx="535.1728395061727" cy="182.66049382716034" r="1.5061728395062346" fill="rgb(0,0,0)"/><circle vector-effect="non-scaling-stroke" cx="542.7037037037036" cy="182.66049382716034" r="1.5061728395062346" fill="rgb(0,0,0)"/><rect x="474.926" y="219.185" width="79.074" height="15.815" transform="matrix(1,0,0,1,0,0)" fill="rgb(0,0,0)"/><rect x="476.432" y="220.691" width="75.309" height="12.802" transform="matrix(1,0,0,1,0,0)" fill="rgb(235,235,235)"/><rect x="480.198" y="226.34" width="39.914" height="2.636" transform="matrix(1,0,0,1,0,0)" fill="rgb(0,0,0)"/><circle vector-effect="non-scaling-stroke" cx="527.6419753086418" cy="227.8456790123456" r="1.5061728395062346" fill="rgb(0,0,0)"/><circle vector-effect="non-scaling-stroke" cx="535.1728395061727" cy="227.8456790123456" r="1.5061728395062346" fill="rgb(0,0,0)"/><circle vector-effect="non-scaling-stroke" cx="542.7037037037036" cy="227.8456790123456" r="1.5061728395062346" fill="rgb(0,0,0)"/><text transform="matrix(1,0,0,1,463.432,273.877)" style="font-family:'Open Sans';font-weight:400;font-size:20px;font-style:normal;fill:#000000;stroke:none;">Serveur</text><rect x="474.926" y="196.593" width="79.074" height="15.815" transform="matrix(1,0,0,1,0,0)" fill="rgb(0,0,0)"/><rect x="476.432" y="198.099" width="75.309" height="12.802" transform="matrix(1,0,0,1,0,0)" fill="rgb(235,235,235)"/><rect x="480.198" y="203.747" width="39.914" height="2.636" transform="matrix(1,0,0,1,0,0)" fill="rgb(0,0,0)"/><circle vector-effect="non-scaling-stroke" cx="527.6419753086418" cy="205.25308641975286" r="1.5061728395062346" fill="rgb(0,0,0)"/><circle vector-effect="non-scaling-stroke" cx="535.1728395061727" cy="205.25308641975286" r="1.5061728395062346" fill="rgb(0,0,0)"/><circle vector-effect="non-scaling-stroke" cx="542.7037037037036" cy="205.25308641975286" r="1.5061728395062346" fill="rgb(0,0,0)"/><rect x="141" y="89.185" width="300" height="1.815" transform="matrix(1,0,0,1,0,0)" fill="rgb(217,35,35)"/><polygon points="439.396,98.524,439.396,81.661,454,90.093" fill="rgb(217,35,35)"/><rect x="141" y="219.185" width="300" height="1.815" transform="matrix(1,0,0,1,0,0)" fill="rgb(25,202,111)"/><polygon points="439.396,228.524,439.396,211.661,454,220.093" fill="rgb(25,202,111)"/><circle vector-effect="non-scaling-stroke" cx="192.35185185185165" cy="221.00000000000034" r="8.351851851851677" fill="rgb(0,0,0)"/><circle vector-effect="non-scaling-stroke" cx="292.3518518518514" cy="221.00000000000023" r="8.351851851851677" fill="rgb(0,0,0)"/><circle vector-effect="non-scaling-stroke" cx="242.35185185185134" cy="221.00000000000023" r="8.351851851851677" fill="rgb(0,0,0)"/><circle vector-effect="non-scaling-stroke" cx="382.3518518518516" cy="221.00000000000023" r="8.351851851851677" fill="rgb(0,0,0)"/><circle vector-effect="non-scaling-stroke" cx="342.3518518518515" cy="221.00000000000023" r="8.351851851851677" fill="rgb(0,0,0)"/></g><g style="isolation:isolate"><rect x="474.926" y="66.593" width="79.074" height="15.815" transform="matrix(1,0,0,1,0,0)" fill="rgb(0,0,0)"/><rect x="476.432" y="68.099" width="75.309" height="12.802" transform="matrix(1,0,0,1,0,0)" fill="rgb(235,235,235)"/><rect x="480.198" y="73.747" width="39.914" height="2.636" transform="matrix(1,0,0,1,0,0)" fill="rgb(0,0,0)"/><circle vector-effect="non-scaling-stroke" cx="527.6419753086418" cy="75.25308641975298" r="1.5061728395062346" fill="rgb(0,0,0)"/><circle vector-effect="non-scaling-stroke" cx="535.1728395061727" cy="75.25308641975298" r="1.5061728395062346" fill="rgb(0,0,0)"/><circle vector-effect="non-scaling-stroke" cx="542.7037037037036" cy="75.25308641975298" r="1.5061728395062346" fill="rgb(0,0,0)"/></g></g></svg>